							<svg id="dock-by-crestyl" class="line-drawing" viewBox="0 0 500 65" preserveAspectRatio="xMidYMid meet">
								<g>
									<defs>
										<rect id="SVGID_1_" x="0.37" y="-0.107" width="501.587" height="62.156"></rect>
									</defs>
									<path fill="#A27D22" d="M25.227,38.512c-1.186,1.783-2.959,2.949-6.214,2.949h-5.698V11.876h5.698
										c3.255,0,5.028,1.183,6.214,2.958c1.036,1.479,1.408,2.959,1.408,11.837C26.635,35.613,26.263,37.033,25.227,38.512 M34.106,5.511
										c-3.628-3.624-8.728-5.179-14.208-5.179H0.37v52.67h19.529c5.48,0,10.579-1.553,14.208-5.178
										c6.136-6.133,5.476-12.875,5.476-21.153C39.582,18.388,40.242,11.656,34.106,5.511"></path>
									<path fill="#A27D22" d="M69.873,39.541c-0.96,1.262-2.808,2.363-5.175,2.363
										c-2.368,0-4.211-1.102-5.18-2.363c-1.187-1.555-1.922-3.254-1.922-12.87c0-9.613,0.735-11.396,1.922-12.946
										c0.968-1.26,2.812-2.29,5.18-2.29c2.368,0,4.215,1.029,5.175,2.29c1.183,1.55,1.925,3.333,1.925,12.946
										C71.798,36.287,71.056,37.986,69.873,39.541 M92.666,11.435c4.287,0,5.924,2.658,6.732,5.623h13.167
										c-1.92-11.617-9.996-17.165-19.972-17.165c-5.749,0-10.209,1.817-13.911,5.208c-3.678-3.391-7.955-5.208-13.985-5.208
										c-6.439,0-10.874,2.072-14.719,5.915c-5.553,5.549-5.333,12.949-5.333,20.863c0,7.915-0.221,15.315,5.333,20.864
										c3.845,3.842,8.28,5.918,14.719,5.918c6.03,0,10.307-1.82,13.985-5.211c3.702,3.391,8.162,5.211,13.911,5.211
										c9.977,0,18.052-5.551,19.972-17.166H99.398c-0.808,2.957-2.445,5.617-6.732,5.617c-2.367,0-4.145-0.953-5.105-2.207
										c-1.188-1.555-2.003-3.41-2.003-13.026c0-9.613,0.815-11.464,2.003-13.017C88.521,12.394,90.299,11.435,92.666,11.435"></path>
								</g>
								<path d="M145.244,0.332L130.016,18.978L130.016,0.332L117.211,0.332L117.211,53.002L130.016,53.002L130.016,36.518L134.447,31.414L146.582,53.002L161.669,53.002L143.107,21.644L161.082,0.332 z"></path>
								<g>
									<defs>
										<rect id="SVGID_3_" x="0.37" y="-0.107" width="499.63" height="61.914"></rect>
									</defs>
									<path fill="#A27D22" d="M257.388,44.734c0.776,0,1.406,0.629,1.412,1.402l0.015,5.578
										c0.014,0.768-0.624,1.406-1.39,1.406l-14.46,0.025c-5.229-0.221-10.921-0.842-15.505-4.676c-3.745-3.117-5.608-7.072-5.628-11.832
										c-0.018-4.77,1.809-8.628,5.468-11.604c3.673-2.961,8.383-4.461,14.144-4.481l27.564,0.015c0.77,0,1.016,0.497,0.538,1.105
										l-4.758,6.149c-0.454,0.609-1.479,1.114-2.251,1.121l-19.631,0.013c-0.772,0.003-2.032,0.106-2.792,0.22
										c0,0-3.668,0.558-5.461,2.047c-1.799,1.507-2.7,3.428-2.687,5.75c0,2.297,0.916,4.178,2.728,5.617
										c1.812,1.438,4.107,2.158,6.863,2.145H257.388z"></path>
									<path fill="#A27D22" d="M306.054,52.043c0.587,0.49,0.456,0.891-0.318,0.898l-11.901,0.008
										c-0.759,0.01-1.881-0.391-2.477-0.891l-7.721-6.354c-0.604-0.498-1.717-0.891-2.485-0.891l-5.513,0.033
										c-0.769,0-1.39,0.627-1.39,1.395l0.026,5.385c0,0.77-0.638,1.406-1.406,1.414l-7.32-0.008c-0.771,0.008-1.411-0.621-1.411-1.4
										l-0.051-13.818c0-0.768,0.629-1.406,1.39-1.406l19.705-0.016c0.781,0,2.044-0.064,2.807-0.123c0,0,1.739-0.154,2.846-0.678
										c1.423-0.674,2.116-1.67,2.116-2.98c-0.013-2.567-2.13-3.838-6.394-3.822l-15.094,0.029c-0.769,0-1.016-0.489-0.541-1.103
										l4.851-6.183c0.473-0.613,1.494-1.115,2.271-1.121c0,0,13.855-0.473,19.651,2.511c4.021,2.241,5.634,5.624,5.659,9.701
										c0,2.281-0.704,4.359-2.128,6.22c-1.43,1.855-3.41,3.289-5.927,4.289L306.054,52.043z"></path>
									<path fill="#A27D22" d="M343.504,44.438c0.771,0,1.012,0.498,0.545,1.113l-4.774,6.182
										c-0.464,0.613-1.472,1.113-2.249,1.113l-26.093,0.047c-0.769,0-1.397-0.629-1.397-1.396l-0.123-29.795
										c0-0.775,0.639-1.405,1.399-1.411l32.595-0.064c0.776,0,1.03,0.496,0.556,1.108l-4.767,6.205c-0.484,0.614-1.488,1.116-2.268,1.124
										h-15.953c-0.777,0-1.397,0.633-1.397,1.416v0.67c0,0.769,0.637,1.39,1.413,1.39l20.887,0.019c0.769-0.019,1.014,0.489,0.548,1.102
										l-4.77,6.191c-0.482,0.604-1.485,1.102-2.265,1.102h-14.373c-0.761,0-1.4,0.639-1.4,1.414l0.01,1.082
										c0,0.77,0.63,1.389,1.404,1.389H343.504z"></path>
									<path fill="#A27D22" d="M381.379,20.114c0.763-0.005,1.025,0.492,0.54,1.108l-4.758,6.147
										c-0.475,0.616-1.486,1.116-2.267,1.118l-15.347,0.031c-0.769,0-2.545,0.06-2.545,1.341c0,0.89,0.621,1.331,1.868,1.331l9.575,0.018
										c4.931,0,8.649,0.874,11.314,2.796c2.739,2.035,4.132,4.684,4.146,7.941c0.008,3.23-1.362,5.838-4.128,7.83
										c-2.584,1.914-5.864,2.869-9.837,2.896l-22.8-0.008c-0.767,0.008-1.013-0.498-0.548-1.105l4.76-6.156
										c0.483-0.605,1.487-1.113,2.264-1.113l14.885-0.031c0.769,0,2.028-0.066,2.786-0.133c0,0,3.067-0.195,3.067-2.279
										c0-0.811-0.548-1.43-1.627-1.857c-0.811-0.293-1.766-0.439-2.854-0.432l-9.575,0.041c-3.056,0-8.153-0.816-10.637-2.502
										c-2.657-1.799-3.993-4.188-3.999-7.18c-0.016-3.002,1.316-5.649,3.963-7.469c2.462-1.697,5.262-2.337,9.201-2.337L381.379,20.114z"></path>
									<path fill="#A27D22" d="M421.865,19.902c0.776-0.005,1.021,0.495,0.55,1.108l-4.81,6.206
										c-0.475,0.614-1.496,1.113-2.262,1.121l-6.962-0.008c-0.776,0.002-1.397,0.642-1.397,1.411l0.073,21.379
										c0.016,0.777-0.615,1.414-1.384,1.414l-7.391,0.025c-0.769,0-1.396-0.621-1.396-1.4l-0.028-21.378
										c-0.006-0.769-0.636-1.402-1.417-1.4l-10.619-0.02c-0.769,0.005-1.023-0.495-0.539-1.108l4.769-6.178
										c0.475-0.616,1.48-1.111,2.249-1.116L421.865,19.902z"></path>
									<path fill="#A27D22" d="M499.205,43.85c0.779,0,1.022,0.488,0.556,1.109l-4.805,6.184
										c-0.477,0.615-1.49,1.113-2.26,1.113l-26.124,0.043c-0.769,0.006-1.399-0.625-1.399-1.402V21.108c0-0.767,0.631-1.402,1.39-1.409
										l7.416,0.006c0.777-0.006,1.408,0.621,1.408,1.397v21.346c0,0.779,0.636,1.4,1.404,1.4H499.205z"></path>
									<path fill="#A27D22" d="M461.191,19.722l-10.085,0.042c-0.767,0-1.739,0.533-2.157,1.182l-7.016,10.924
										c-0.427,0.647-1.13,0.663-1.578,0.035l-7.817-10.93c-0.451-0.626-1.449-1.137-2.226-1.134l-1.995,0.005l-4.71,6.102l11.529,14.525
										c0.483,0.594,0.867,1.723,0.867,2.494l0.008,8.055c0,0.768,0.628,1.391,1.407,1.391l7.318-0.037c0.778,0,1.407-0.629,1.407-1.395
										v-8.006c-0.017-0.779,0.367-1.908,0.833-2.529l14.777-19.606C462.212,20.218,461.96,19.722,461.191,19.722"></path>
								</g>
								<g>
									<defs>
										<rect id="SVGID_5_" x="176.947" y="26.671" width="34.964" height="35.378"></rect>
									</defs>
									<path fill="#A27D22" d="M180.699,52.93v-2.365c0.504,0.885,1.223,1.566,2.151,2.068
										c0.935,0.508,1.87,0.754,2.811,0.754c1.211,0,2.322-0.246,3.333-0.729c1.005-0.494,1.876-1.166,2.604-2.021
										c0.722-0.854,1.284-1.828,1.689-2.922c0.402-1.102,0.605-2.273,0.605-3.523c0-1.23-0.203-2.404-0.605-3.51
										c-0.405-1.111-0.967-2.096-1.689-2.939c-0.728-0.848-1.59-1.521-2.595-2.012c-1.006-0.484-2.118-0.721-3.342-0.721
										c-0.941,0-1.876,0.242-2.811,0.744c-0.928,0.502-1.647,1.189-2.151,2.07V26.671h-3.752V52.93H180.699z M181.028,42.051
										c0.221-0.664,0.533-1.256,0.938-1.756c0.411-0.492,0.907-0.895,1.492-1.199c0.581-0.297,1.242-0.445,1.984-0.445
										c0.714,0,1.364,0.148,1.933,0.445c0.577,0.305,1.073,0.707,1.483,1.199c0.414,0.5,0.735,1.092,0.951,1.764
										c0.219,0.682,0.326,1.389,0.326,2.133c0,0.75-0.106,1.455-0.326,2.127c-0.215,0.691-0.537,1.275-0.951,1.775
										c-0.411,0.51-0.912,0.9-1.492,1.197c-0.574,0.303-1.218,0.453-1.925,0.453c-0.743,0-1.403-0.15-1.984-0.453
										c-0.585-0.297-1.082-0.688-1.492-1.197c-0.405-0.5-0.717-1.084-0.938-1.775c-0.223-0.672-0.33-1.377-0.33-2.127
										C180.699,43.447,180.805,42.727,181.028,42.051 M197.171,57.658c0.345,0.877,0.823,1.641,1.447,2.299
										c0.613,0.662,1.348,1.189,2.205,1.572c0.85,0.406,1.791,0.584,2.825,0.584c2.643,0,4.688-0.641,6.116-1.936
										c1.432-1.307,2.141-3.449,2.141-6.428V35.457h-3.747v9.055c0,1.506-0.317,2.768-0.943,3.787c-0.629,1.01-1.603,1.518-2.912,1.518
										c-0.676,0-1.229-0.139-1.673-0.412c-0.439-0.275-0.806-0.646-1.068-1.105c-0.27-0.475-0.459-1.025-0.574-1.686
										c-0.112-0.656-0.164-1.359-0.164-2.102v-9.055h-3.756v10.387c0,1.197,0.075,2.191,0.215,3.006c0.151,0.801,0.418,1.525,0.811,2.174
										c0.459,0.723,1.088,1.297,1.881,1.723c0.801,0.422,1.777,0.641,2.947,0.641c1.189,0,2.234-0.236,3.133-0.719
										c0.895-0.488,1.595-1.203,2.104-2.145v3.248c0,1.721-0.333,2.934-0.998,3.641c-0.665,0.705-1.666,1.064-3.03,1.064
										c-1.304,0-2.268-0.352-2.884-1.041c-0.605-0.699-0.925-1.527-0.948-2.514h-3.653C196.646,55.859,196.823,56.771,197.171,57.658"></path>
								</g>
							</svg>