<svg id="face" class="line-drawing" preserveAspectRatio="xMidYMid meet" width="100%" viewBox="0 0 159.01099 227.0126" style="height: 253.42105263157896px;">
      <g inkscape:label="Calque 1" inkscape:groupmode="layer" id="layer1" transform="translate(-100.10207,-147.17446)">
        <path sodipodi:nodetypes="cssssssssssssssssssssccsssccsssssssssscsssssssssc" inkscape:connector-curvature="0" d="m 116.3086,272.28405 c 0,0 -12.01172,-16.01562 -12.79297,-23.4375 -0.15083,-1.43292 -0.32246,-3.59157 -0.48035,-6.22147 -0.0634,-1.05644 -2.37464,1.93608 -2.43139,0.74406 -0.0736,-1.54488 2.11038,-7.31478 2.05667,-9.02379 -0.33605,-10.69251 -0.18842,-23.8945 1.63632,-30.8113 4.03303,-15.28747 20.02437,-31.85937 25,-36.71874 1.65016,-1.6116 3.55078,-3.20682 5.63699,-4.74812 0.8474,-0.62607 -0.83785,-1.95034 0.0664,-2.55609 1.01783,-0.6818 4.6322,-0.64204 5.71039,-1.29133 10.10128,-6.08307 22.57962,-10.58188 32.33618,-10.54509 23.83282,0.0899 40.7217,5.92901 54.29687,18.75 0.23035,0.21755 1.79799,1.6777 3.48419,1.94398 1.79606,0.28364 3.72662,-0.61903 4.31886,-0.13119 1.32679,1.0929 -2.30383,2.72339 -0.75322,3.21226 2.29634,0.724 4.44184,-0.7911 5.26277,2.6e-4 1.43934,1.38746 -3.87924,3.04799 -2.47529,4.49353 10.61986,10.93446 19.66801,23.87294 18.67831,43.99678 -0.74733,15.19567 -2.28896,27.53182 -4.01705,35.69144 -0.48531,2.29152 -0.48533,6.75365 -0.98659,8.3572 -0.5127,1.64016 -1.52671,0.40518 -2.0276,1.26386 -2.73437,4.6875 -4.58984,4.29688 -4.58984,4.29688 m -0.0977,-41.40625 c 0,0 0.13592,5.11965 0.2226,12.21126 0.0184,1.50539 -1.96542,7.34963 -1.95323,9.00263 0.0114,1.54202 2.01928,-1.11484 2.02227,0.50499 0.023,12.48241 -0.24548,26.54933 -1.46352,31.01549 -4.32945,16.4058 -4.95782,37.35459 -8.20312,43.75 -5.85938,9.76563 -26.33368,41.63212 -34.375,45.70313 -8.1061,4.10381 -23.04688,4.6875 -32.42188,0.39062 -9.375,-4.29687 -33.35968,-25.78673 -36.71875,-38.67187 -2.22705,-8.5428 -3.66059,-19.12452 -6.37876,-28.97844 -3.58362,-12.99137 -8.24291,-23.28215 -8.46499,-28.83406 -0.0958,-2.39627 -0.89579,-12.98217 -1.71045,-23.38054 -0.82668,-10.55178 -1.66851,-20.91045 -1.80517,-22.32259 -0.37737,-3.8995 1.18961,-8.73067 3.48783,-13.4891 0.77087,-1.59608 1.74902,5.69102 2.63865,4.14921 0.87682,-1.51961 1.66408,-11.86944 2.56797,-13.26321 3.93537,-6.06831 7.7118,-10.60002 7.7118,-10.60002 0,0 21.85869,-14.0308 36.32812,-10.54688 9.26159,2.22998 11.48189,4.51805 11.15826,6.71477 -0.0759,0.51508 -2.24475,1.22044 -2.54238,1.72355 -0.26042,0.4402 1.3696,0.67978 1.02263,1.10806 -0.60475,0.74648 -2.93924,1.43835 -3.48329,2.13784 -2.73438,3.51562 28.61041,4.33141 34.86041,-1.52797 2.38034,-2.23157 13.53161,-5.77883 23.14801,0.86603 1.62922,1.12578 3.96438,9.5441 5.45537,11.31094 1.37308,1.62711 1.91628,-3.45021 3.09048,-1.18826 2.76696,5.33021 4.87306,12.54437 5.80614,22.21442 z" style="" id="path3911"></path>
        <path inkscape:connector-curvature="0" id="path3913" d="m 252.73438,250.99499 c 0,0 5.46875,-4.10156 5.85937,2.92969 0.39063,7.03125 -5.27344,19.53125 -5.46875,24.21875 -0.19531,4.6875 -1.95312,12.30469 -3.71094,14.45312 -1.75781,2.14844 -4.29687,5.66407 -9.57031,4.49219" style=""></path>
        <path sodipodi:nodetypes="cssc" inkscape:connector-curvature="0" id="path3915" d="m 106.8733,257.00516 c 0,0 -3.31457,0.82864 -1.51918,7.87208 1.79539,7.04345 7.45777,23.89248 9.39126,28.58811 1.9335,4.69563 5.10996,10.49612 9.80559,8.42451" style=""></path>
        <path sodipodi:nodetypes="ccccccccccccccssccsccccc" inkscape:connector-curvature="0" id="path3917" d="m 115.43592,258.24812 8.01019,4.83374 7.18155,-0.13811 0.55243,-4.55753 c -0.01,0.024 14.09266,-5.6768 47.50874,-0.96674 0.0765,2.98423 0.0765,2.98423 0,0 l 0,2.76213 12.49866,0 0,-2.62403 c -0.26997,0.0981 21.87176,-6.19663 48.54454,-1.51917 l 0,3.72888 4.55753,0 0,6.49102 -4.97185,0 c 0,0 -0.31355,6.23725 -3.86699,8.01019 -11.58338,5.77936 -26.46878,6.4792 -37.15073,1.65729 -4.35664,-1.96662 -6.89223,-8.34685 -6.90534,-12.56772 l -12.84393,0 c 0,0 -1.10485,12.2915 -9.39126,15.74417 -8.28641,3.45267 -32.04078,4.28131 -37.70315,-3.59077 0,0 -1.38107,-2.20971 -1.38107,-4.41942 l -5.38617,0 -8.97694,-7.45777 z" style=""></path>
        <path sodipodi:nodetypes="sccssscccs" inkscape:connector-curvature="0" id="path3919" d="m 219.81592,258.06392 c -13.34787,-0.0806 -22.01873,2.03556 -22.58886,2.2852 l 0,1.86971 c 0,0 0.0482,1.5303 0.16549,2.2852 0.43286,2.78684 0.50224,6.5654 5.46921,8.9071 6.95202,3.27758 18.91089,2.9719 27.35775,-0.98679 3.25758,-1.52669 3.66273,-5.84285 3.66273,-5.84285 l 0.33097,-4.6483 0,-2.67473 c -5.07962,-0.83869 -9.94801,-1.1677 -14.39729,-1.19454 z" style=""></path>
        <path sodipodi:nodetypes="ccczcsccccc" id="path3921" d="m 153.08706,259.43488 c -11.42161,0.1089 -16.46538,2.03637 -16.45992,2.02455 l -0.4404,3.24449 c 0,0 -0.6013,4.31593 -0.41288,5.84002 0.18843,1.5241 1.04595,3.19258 1.04595,3.19258 4.30465,5.64336 22.38151,5.0448 28.681,2.56963 6.29949,-2.47516 7.12897,-11.2908 7.12897,-11.2908 l 0.1101,-2.28412 0,-1.97265 c -7.93862,-1.05516 -14.46119,-1.37324 -19.65282,-1.32374 z" style="" inkscape:connector-curvature="0"></path>
        <path sodipodi:nodetypes="csc" inkscape:connector-curvature="0" id="path3923" d="m 160.25,325.86218 c 0,0 10,9.25 26.25,8.25 16.25,-1 24.75,-8.5 24.75,-8.5" style=""></path>
        <path sodipodi:nodetypes="csssssc" inkscape:connector-curvature="0" id="path3925" d="m 130.5,247.98718 c 0,0 -1.625,5.75 3.125,2.125 4.75,-3.625 15.75,-9.875 22.5,-9.125 6.75,0.75 9,4.375 13,4.75 4,0.375 5.25,-2 3.5,-4.625 -1.75,-2.625 -14.875,-9.5 -22.625,-6.75 -9.95492,3.53239 -18.125,8.375 -19.5,13.625 z" style=""></path>
        <path style="" d="m 237.17129,242.52569 c 0,0 2.3123,5.50967 -2.84334,2.48932 -5.15564,-3.02035 -16.83415,-7.88604 -23.44281,-6.32061 -6.60867,1.56543 -8.40106,5.43718 -12.32575,6.29591 -3.92469,0.85873 -5.45428,-1.3466 -4.03655,-4.16496 1.41773,-2.81837 13.60909,-11.2387 21.63603,-9.45174 10.31065,2.29536 19.00908,6.1083 21.01242,11.15208 z" id="path3927" inkscape:connector-curvature="0" sodipodi:nodetypes="csssssc"></path>
      </g>
    </svg>